#N canvas 759 444 450 300 12;
#X msg 47 55 listen 7001;
#X obj 48 159 print rcv;
#X obj 47 124 oscparse;
#X obj 47 82 netreceive -u -b;
#X obj 153 161 unpack s 0 0 0 0 0 0;
#X floatatom 180 206 5 0 0 0 - - -;
#X floatatom 220 206 5 0 0 0 - - -;
#X floatatom 260 206 5 0 0 0 - - -;
#X floatatom 300 206 5 0 0 0 - - -;
#X floatatom 340 206 5 0 0 0 - - -;
#X floatatom 379 206 5 0 0 0 - - -;
#X symbolatom 98 206 10 0 0 0 - - -;
#X connect 0 0 3 0;
#X connect 2 0 1 0;
#X connect 2 0 4 0;
#X connect 3 0 2 0;
#X connect 4 0 11 0;
#X connect 4 1 5 0;
#X connect 4 2 6 0;
#X connect 4 3 7 0;
#X connect 4 4 8 0;
#X connect 4 5 9 0;
#X connect 4 6 10 0;
