#N canvas 759 444 870 546 12;
#X obj 48 196 print rcv;
#X obj 47 124 oscparse;
#X obj 47 82 netreceive -u -b;
#X floatatom 236 182 5 0 0 0 - - -;
#X floatatom 281 182 5 0 0 0 - - -;
#X floatatom 326 182 5 0 0 0 - - -;
#X floatatom 371 181 5 0 0 0 - - -;
#X floatatom 414 181 5 0 0 0 - - -;
#X floatatom 190 182 5 0 0 0 - - -;
#X obj 442 63 unpack s 0 0 0 0 0 0, f 41;
#X floatatom 525 88 5 0 0 0 - - -;
#X floatatom 565 88 5 0 0 0 - - -;
#X floatatom 605 88 5 0 0 0 - - -;
#X floatatom 645 88 5 0 0 0 - - -;
#X floatatom 685 88 5 0 0 0 - - -;
#X floatatom 724 88 5 0 0 0 - - -;
#X symbolatom 443 88 10 0 0 0 - - -;
#X obj 187 156 unpack 0 0 0 0 0 0, f 35;
#X msg 211 44 Riot1 1 2 3 4 5 6;
#X floatatom 236 235 5 0 0 0 - - -;
#X floatatom 281 235 5 0 0 0 - - -;
#X floatatom 326 235 5 0 0 0 - - -;
#X floatatom 371 234 5 0 0 0 - - -;
#X floatatom 414 234 5 0 0 0 - - -;
#X floatatom 190 235 5 0 0 0 - - -;
#X obj 187 209 unpack 0 0 0 0 0 0, f 35;
#X floatatom 236 292 5 0 0 0 - - -;
#X floatatom 281 292 5 0 0 0 - - -;
#X floatatom 326 292 5 0 0 0 - - -;
#X floatatom 371 291 5 0 0 0 - - -;
#X floatatom 414 291 5 0 0 0 - - -;
#X floatatom 190 292 5 0 0 0 - - -;
#X obj 187 266 unpack 0 0 0 0 0 0, f 35;
#X msg 47 55 listen 7003;
#X obj 190 106 route Riot1 Riot2 Riot3;
#X connect 1 0 9 0;
#X connect 1 0 34 0;
#X connect 2 0 1 0;
#X connect 9 0 16 0;
#X connect 9 1 10 0;
#X connect 9 2 11 0;
#X connect 9 3 12 0;
#X connect 9 4 13 0;
#X connect 9 5 14 0;
#X connect 9 6 15 0;
#X connect 17 0 8 0;
#X connect 17 1 3 0;
#X connect 17 2 4 0;
#X connect 17 3 5 0;
#X connect 17 4 6 0;
#X connect 17 5 7 0;
#X connect 18 0 34 0;
#X connect 25 0 24 0;
#X connect 25 1 19 0;
#X connect 25 2 20 0;
#X connect 25 3 21 0;
#X connect 25 4 22 0;
#X connect 25 5 23 0;
#X connect 32 0 31 0;
#X connect 32 1 26 0;
#X connect 32 2 27 0;
#X connect 32 3 28 0;
#X connect 32 4 29 0;
#X connect 32 5 30 0;
#X connect 33 0 2 0;
#X connect 34 0 17 0;
#X connect 34 1 25 0;
#X connect 34 2 32 0;
